<?xml version="1.0" standalone="no"?>
<!DOCTYPE svg PUBLIC "-//W3C//DTD SVG 20010904//EN"
 "http://www.w3.org/TR/2001/REC-SVG-20010904/DTD/svg10.dtd">
<svg version="1.0" xmlns="http://www.w3.org/2000/svg"
 width="120.000000pt" height="120.000000pt" viewBox="0 0 120.000000 120.000000"
 preserveAspectRatio="xMidYMid meet">
<metadata>
Created by potrace 1.14, written by Peter Selinger 2001-2017
</metadata>
<g transform="translate(0.000000,120.000000) scale(0.100000,-0.100000)"
fill="#000000" stroke="none">
<path d="M0 600 l0 -600 600 0 600 0 0 600 0 600 -600 0 -600 0 0 -600z m1125
0 l0 -335 -525 0 -525 0 -3 325 c-1 179 0 331 3 338 3 10 113 12 527 10 l523
-3 0 -335z"/>
<path d="M150 600 l0 -260 450 0 450 0 0 260 0 260 -450 0 -450 0 0 -260z
m234 175 c53 -25 66 -59 66 -175 0 -78 -4 -109 -17 -131 -25 -42 -72 -60 -146
-57 l-62 3 -3 175 c-1 96 0 180 2 187 7 18 120 17 160 -2z m291 -25 c0 -33 -2
-35 -37 -38 -36 -3 -38 -5 -38 -37 0 -32 2 -34 38 -37 35 -3 37 -5 37 -38 0
-33 -2 -35 -37 -38 -36 -3 -38 -5 -38 -37 0 -32 2 -34 38 -37 35 -3 37 -5 37
-38 0 -35 -1 -35 -46 -38 -38 -2 -52 2 -75 22 l-29 24 0 142 0 142 29 24 c23
20 37 24 75 22 45 -3 46 -3 46 -38z m161 -53 c12 -48 24 -90 26 -92 2 -3 12
30 22 73 27 118 24 112 62 112 25 0 34 -4 34 -16 0 -9 -16 -87 -36 -173 -34
-148 -52 -191 -79 -191 -33 0 -46 31 -85 198 -22 95 -40 175 -40 178 0 3 17 4
38 2 l37 -3 21 -88z"/>
<path d="M300 600 l0 -111 33 3 32 3 0 105 0 105 -32 3 -33 3 0 -111z"/>
</g>
</svg>
